<svg aria-hidden="true" style="position: absolute; width: 0; height: 0; overflow: hidden;" version="1.1" xmlns="http://www.w3.org/2000/svg" xmlns:xlink="http://www.w3.org/1999/xlink">
<defs>
<symbol id="icon-mic" viewBox="0 0 32 32">
<path d="M15 22c2.761 0 5-2.239 5-5v-12c0-2.761-2.239-5-5-5s-5 2.239-5 5v12c0 2.761 2.239 5 5 5zM22 14v3c0 3.866-3.134 7-7 7s-7-3.134-7-7v-3h-2v3c0 4.632 3.5 8.447 8 8.944v4.056h-4v2h10v-2h-4v-4.056c4.5-0.497 8-4.312 8-8.944v-3h-2z"></path>
</symbol>
<symbol id="icon-search" viewBox="0 0 32 32">
<path d="M31.008 27.231l-7.58-6.447c-0.784-0.705-1.622-1.029-2.299-0.998 1.789-2.096 2.87-4.815 2.87-7.787 0-6.627-5.373-12-12-12s-12 5.373-12 12 5.373 12 12 12c2.972 0 5.691-1.081 7.787-2.87-0.031 0.677 0.293 1.515 0.998 2.299l6.447 7.58c1.104 1.226 2.907 1.33 4.007 0.23s0.997-2.903-0.23-4.007zM12 20c-4.418 0-8-3.582-8-8s3.582-8 8-8 8 3.582 8 8-3.582 8-8 8z"></path>
</symbol>
<symbol id="icon-logout" viewBox="0 0 32 32">
<path d="M25.164 16.252c0.006-0.013 0.008-0.028 0.013-0.041 0.010-0.029 0.021-0.058 0.027-0.090 0.009-0.045 0.014-0.092 0.014-0.139s-0.005-0.093-0.014-0.139c-0.006-0.031-0.017-0.060-0.027-0.090-0.005-0.014-0.007-0.028-0.013-0.041-0.013-0.032-0.031-0.062-0.048-0.091-0.006-0.009-0.010-0.020-0.016-0.030-0.026-0.038-0.055-0.074-0.087-0.106l-3.549-3.549c-0.274-0.274-0.719-0.274-0.993 0s-0.274 0.719 0 0.993l2.35 2.35h-8.642c-0.388 0-0.703 0.315-0.703 0.703s0.315 0.703 0.703 0.703h8.642l-2.35 2.35c-0.274 0.274-0.274 0.719 0 0.993 0.137 0.137 0.317 0.206 0.497 0.206s0.359-0.069 0.497-0.206l3.549-3.549c0.033-0.032 0.062-0.068 0.087-0.106 0.006-0.009 0.010-0.020 0.016-0.029 0.018-0.029 0.035-0.059 0.049-0.091z"></path>
<path d="M17.699 19.613c-0.388 0-0.703 0.315-0.703 0.703v2.319h-7.441v-13.304h7.441v2.319c0 0.388 0.315 0.703 0.703 0.703s0.703-0.315 0.703-0.703v-3.021c0-0.388-0.315-0.702-0.703-0.702h-8.846c-0.388 0-0.703 0.315-0.703 0.702v14.709c0 0.388 0.315 0.703 0.703 0.703h8.846c0.388 0 0.703-0.315 0.703-0.703v-3.021c0-0.388-0.315-0.702-0.703-0.702z"></path>
<path d="M15.982 0.176c-8.716 0-15.806 7.091-15.806 15.806s7.091 15.806 15.806 15.806c8.716 0 15.806-7.091 15.806-15.806s-7.091-15.806-15.806-15.806zM15.982 30.383c-7.941 0-14.401-6.461-14.401-14.401s6.461-14.401 14.401-14.401 14.401 6.461 14.401 14.401-6.461 14.401-14.401 14.401z"></path>
</symbol>
<symbol id="icon-login" viewBox="0 0 32 32">
<path d="M28.148 26.062c2.272-2.738 3.641-6.252 3.641-10.079 0-8.716-7.091-15.806-15.806-15.806s-15.806 7.091-15.806 15.806c0 3.828 1.368 7.341 3.641 10.079 0.037 0.057 0.080 0.111 0.135 0.156 0.001 0.001 0.002 0.001 0.002 0.002 2.901 3.404 7.216 5.569 12.029 5.569s9.127-2.165 12.029-5.569c0.001-0.001 0.002-0.001 0.003-0.002 0.054-0.046 0.097-0.1 0.134-0.156zM15.982 1.581c7.941 0 14.401 6.461 14.401 14.401 0 3.221-1.063 6.198-2.856 8.599-2.136-2.285-4.874-3.86-7.869-4.574 2.282-1.289 3.829-3.733 3.829-6.536 0-4.138-3.367-7.505-7.505-7.505s-7.505 3.367-7.505 7.505c0 2.803 1.547 5.247 3.829 6.536-2.995 0.714-5.733 2.289-7.869 4.574-1.793-2.401-2.856-5.378-2.856-8.599 0-7.941 6.461-14.401 14.401-14.401zM15.982 19.571c-3.364 0-6.1-2.737-6.1-6.1s2.737-6.101 6.1-6.101 6.1 2.737 6.1 6.1-2.737 6.101-6.1 6.101zM15.982 30.383c-4.21 0-8.004-1.816-10.639-4.706 2.729-2.993 6.571-4.701 10.639-4.701s7.91 1.708 10.639 4.701c-2.635 2.89-6.429 4.706-10.639 4.706z"></path>
</symbol>
<symbol id="icon-cart" viewBox="0 0 32 32">
<path d="M12 29c0 1.657-1.343 3-3 3s-3-1.343-3-3c0-1.657 1.343-3 3-3s3 1.343 3 3z"></path>
<path d="M32 29c0 1.657-1.343 3-3 3s-3-1.343-3-3c0-1.657 1.343-3 3-3s3 1.343 3 3z"></path>
<path d="M32 16v-12h-24c0-1.105-0.895-2-2-2h-6v2h4l1.502 12.877c-0.915 0.733-1.502 1.859-1.502 3.123 0 2.209 1.791 4 4 4h24v-2h-24c-1.105 0-2-0.895-2-2 0-0.007 0-0.014 0-0.020l26-3.98z"></path>
</symbol>
<symbol id="icon-hamburger" viewBox="0 0 32 32">
<path d="M2 6h28v6h-28zM2 14h28v6h-28zM2 22h28v6h-28z"></path>
</symbol>
</defs>
</svg>
